<?xml version="1.0" standalone="no"?>
<!DOCTYPE svg PUBLIC "-//W3C//DTD SVG 20010904//EN"
 "http://www.w3.org/TR/2001/REC-SVG-20010904/DTD/svg10.dtd">
<svg version="1.0" xmlns="http://www.w3.org/2000/svg"
 width="96.000000pt" height="96.000000pt" viewBox="0 0 96.000000 96.000000"
 preserveAspectRatio="xMidYMid meet">
<metadata>
Created by potrace 1.14, written by Peter Selinger 2001-2017
</metadata>
<g transform="translate(0.000000,96.000000) scale(0.100000,-0.100000)"
fill="#000000" stroke="none">
<path d="M384 825 c-190 -57 -299 -245 -250 -432 28 -112 88 -184 196 -236 57
-28 75 -32 150 -32 74 0 93 4 150 31 122 58 196 166 207 306 l6 73 -29 -26
c-100 -92 -248 -82 -324 22 -17 24 -33 52 -35 63 -19 88 -6 148 44 208 l33 39
-54 -2 c-30 -1 -72 -8 -94 -14z"/>
</g>
</svg>
